<?xml version="1.0" standalone="no"?>
<!DOCTYPE svg PUBLIC "-//W3C//DTD SVG 20010904//EN"
 "http://www.w3.org/TR/2001/REC-SVG-20010904/DTD/svg10.dtd">
<svg version="1.0" xmlns="http://www.w3.org/2000/svg"
 width="333.000000pt" height="333.000000pt" viewBox="0 0 333.000000 333.000000"
 preserveAspectRatio="xMidYMid meet">

<g transform="translate(0.000000,333.000000) scale(0.100000,-0.100000)"
fill="#000000" stroke="none">
<path d="M1153 2006 c-69 -33 -107 -88 -108 -160 l0 -51 95 -3 94 -3 -42 39
c-53 49 -57 89 -13 133 55 54 159 35 226 -43 18 -22 37 -56 42 -76 5 -19 14
-37 21 -40 14 -4 16 128 2 193 -7 34 -9 37 -15 18 -11 -33 -28 -34 -94 -7 -78
31 -140 31 -208 0z"/>
<path d="M1717 2013 c-11 -10 -8 -183 3 -183 5 0 14 18 20 39 14 53 66 98 124
106 73 11 76 8 76 -95 l0 -90 80 0 79 0 3 93 3 92 54 -1 c68 -2 98 -24 131
-92 14 -28 29 -52 33 -52 4 0 6 42 5 93 l-3 92 -301 3 c-165 1 -303 -1 -307
-5z"/>
<path d="M1120 1725 c-15 -17 -6 -33 26 -45 13 -5 24 -14 24 -20 0 -18 -29
-23 -48 -9 -15 13 -16 12 -3 -3 18 -24 48 -23 60 1 11 20 3 32 -31 44 -10 4
-18 11 -18 16 0 18 21 23 38 9 15 -12 16 -11 3 5 -16 21 -35 22 -51 2z"/>
<path d="M1380 1730 c0 -5 9 -10 19 -10 11 0 23 -5 27 -11 9 -15 -16 -30 -38
-23 -26 8 -22 1 13 -25 28 -21 30 -21 20 -3 -8 16 -7 21 4 26 21 8 19 33 -4
46 -25 13 -41 13 -41 0z"/>
<path d="M1800 1730 c0 -5 5 -10 10 -10 6 0 11 -21 12 -47 l1 -48 4 45 c3 24
9 50 15 57 8 10 4 13 -16 13 -14 0 -26 -4 -26 -10z"/>
<path d="M2044 1727 c-11 -30 0 -92 18 -95 19 -4 58 31 58 51 0 35 -65 72 -76
44z m56 -28 c9 -16 8 -25 -6 -40 -28 -31 -44 -24 -44 21 0 33 3 40 20 40 10 0
24 -9 30 -21z"/>
<path d="M2179 1725 c-1 -8 -1 -24 -1 -35 0 -57 1 -60 30 -59 23 2 24 2 5 6
-14 3 -23 12 -23 23 0 11 9 20 23 23 l22 4 -22 2 c-28 1 -31 31 -3 31 11 0 20
5 20 10 0 17 -50 12 -51 -5z"/>
<path d="M1242 1694 c-1 -26 4 -46 13 -54 16 -13 54 -5 56 13 5 51 4 77 -3 77
-4 0 -8 -19 -10 -42 -2 -35 -7 -43 -23 -43 -16 0 -21 9 -26 45 l-6 45 -1 -41z"/>
<path d="M1507 1685 c-15 -43 -15 -44 4 -32 15 9 23 9 38 0 19 -12 19 -11 4
32 -8 25 -19 45 -23 45 -4 0 -15 -20 -23 -45z m33 5 c9 -17 8 -20 -9 -20 -14
0 -18 5 -14 20 3 11 7 20 9 20 2 0 8 -9 14 -20z"/>
<path d="M1652 1693 c-1 -28 -8 -45 -19 -52 -17 -10 -17 -10 0 -11 23 0 29 18
24 66 l-4 39 -1 -42z"/>
<path d="M1938 1724 c-17 -28 -37 -87 -27 -76 7 6 23 12 35 12 12 0 25 -6 28
-12 3 -7 3 -2 0 12 -10 37 -30 74 -36 64z m22 -46 c0 -5 -7 -8 -15 -8 -15 0
-20 21 -8 33 7 7 23 -11 23 -25z"/>
<path d="M1040 1436 c0 -69 2 -126 5 -126 3 0 14 9 26 21 23 23 44 22 139 -6
155 -46 310 55 310 202 l0 33 -91 0 -91 0 31 -35 c50 -57 41 -129 -19 -160
-92 -48 -225 21 -269 139 -32 86 -41 71 -41 -68z"/>
<path d="M1938 1469 c-3 -100 -15 -119 -70 -119 -15 0 -28 -4 -28 -10 0 -6 67
-10 180 -10 113 0 180 4 180 10 0 6 -15 10 -34 10 -52 0 -66 27 -66 127 l0 83
-79 0 -79 0 -4 -91z"/>
</g>
</svg>
